Patient4_TMGait_0pt4_03_left_35_GRF.mot
version=1
nRows=26
nColumns=19
inDegrees=no
endheader
time	F1x	F1y	F1z	M1x	M1y	M1z	F2x	F2y	F2z	M2x	M2y	M2z	EC1x	EC1y	EC1z	EC2x	EC2y	EC2z
46.31	-1.7953	5.5624	-1.1029	-1.7245	0.041351	8.322	-30.9161	758.0324	-73.572	296.7325	88.9024	848.8629	-0.0592	0.0182	-0.0073	-0.0462	0.0165	0.9585
46.3235	-1.2656	4.0342	-0.67326	-1.2513	-0.07444	5.9127	-27.7174	745.6192	-70.493	291.2154	85.6654	832.5122	-0.0592	0.0182	-0.0073	-0.0462	0.0165	0.9585
46.337	-0.83224	2.7479	-0.32425	-0.85589	-0.1578	3.926	-24.5351	732.2862	-67.4213	285.3759	82.1143	814.805	-0.0592	0.0182	-0.0073	-0.0462	0.0165	0.9585
46.3505	-0.515	1.7848	-0.067677	-0.56072	-0.21289	2.4664	-21.5262	719.6259	-64.6276	279.8594	78.5358	797.6174	-0.0592	0.0182	-0.0073	-0.0462	0.0165	0.9585
46.364	-0.30108	1.1319	0.10514	-0.36112	-0.24777	1.4977	-18.7496	709.2465	-62.3424	275.2896	75.222	782.7878	-0.0592	0.0182	-0.0073	-0.0462	0.0165	0.9585
46.3775	-0.18857	0.74303	0.2177	-0.24158	-0.28044	0.93775	-16.192	702.4546	-60.684	272.1606	72.3635	771.7725	-0.0592	0.0182	-0.0073	-0.0462	0.0165	0.9585
46.391	-0.15488	0.53716	0.29865	-0.17772	-0.32798	0.6521	-13.7838	700.0751	-59.6871	270.7752	70.0529	765.456	-0.0592	0.0182	-0.0073	-0.0462	0.0165	0.9585
46.4045	-0.19019	0.4229	0.36631	-0.14116	-0.40296	0.50445	-11.4223	702.3514	-59.2946	271.2103	68.2679	764.0612	-0.0592	0.0182	-0.0073	-0.0462	0.0165	0.9585
46.418	-0.28129	0.30691	0.43847	-0.10243	-0.51778	0.36563	-8.9974	708.8998	-59.4143	273.3022	66.9298	767.1357	-0.0592	0.0182	-0.0073	-0.0462	0.0165	0.9585
46.4315	-0.41135	0.10201	0.51993	-0.033524	-0.67007	0.12109	-6.4424	718.8099	-59.9076	276.6875	65.9119	773.6833	-0.0592	0.0182	-0.0073	-0.0462	0.0165	0.9585
46.445	-0.57506	-0.2647	0.61448	0.092313	-0.85744	-0.32086	-3.7324	730.8375	-60.6393	280.8772	65.098	782.3885	-0.0592	0.0182	-0.0073	-0.0462	0.0165	0.9585
46.4585	-0.74649	-0.85806	0.71772	0.29694	-1.0627	-1.0477	-0.89819	743.5897	-61.4693	285.331	64.3792	791.8108	-0.0592	0.0182	-0.0073	-0.0462	0.0165	0.9585
46.472	-0.90703	-1.7084	0.82705	0.58939	-1.2695	-2.0891	1.9668	755.6853	-62.2857	289.519	63.6857	800.5513	-0.0592	0.0182	-0.0073	-0.0462	0.0165	0.9585
46.4855	-1.0067	-2.8062	0.91703	0.96222	-1.4294	-3.4317	4.7612	765.9437	-63.0009	292.9908	62.9691	807.4337	-0.0592	0.0182	-0.0073	-0.0462	0.0165	0.9585
46.499	-0.9776	-4.0597	0.95246	1.3806	-1.4758	-4.9563	7.3845	773.5387	-63.5749	295.4288	62.2211	811.6715	-0.0592	0.0182	-0.0073	-0.0462	0.0165	0.9585
46.5125	-0.72907	-5.2399	0.86698	1.7651	-1.2991	-6.3862	9.7638	778.0172	-64.0091	296.6599	61.4626	812.8615	-0.0592	0.0182	-0.0073	-0.0462	0.0165	0.9585
46.526	-0.14463	-5.9437	0.58084	1.9801	-0.76263	-7.2501	11.8529	779.2855	-64.3419	296.6465	60.7377	810.9551	-0.0592	0.0182	-0.0073	-0.0462	0.0165	0.9585
46.5395	0.8957	-5.5552	-0.015079	1.8183	0.30353	-6.812	13.6374	777.5633	-64.6197	295.4705	60.0893	806.2108	-0.0592	0.0182	-0.0073	-0.0462	0.0165	0.9585
46.553	2.5065	-3.2293	-1.0265	0.99478	2.0634	-4.0585	15.118	773.2931	-64.8795	293.305	59.551	799.1024	-0.0592	0.0182	-0.0073	-0.0462	0.0165	0.9585
46.5665	4.7377	2.0969	-2.5476	-0.84815	4.6452	2.2906	16.3057	767.0632	-65.1415	290.3846	59.1358	790.2588	-0.0592	0.0182	-0.0073	-0.0462	0.0165	0.9585
46.58	7.5324	11.5973	-4.6133	-4.1035	8.0741	13.6479	17.2448	759.4842	-65.3852	286.9548	58.8073	780.3178	-0.0592	0.0182	-0.0073	-0.0462	0.0165	0.9585
46.5935	10.6415	26.3595	-7.1515	-9.1312	12.1817	31.335	17.9722	751.0297	-65.5592	283.2104	58.4972	769.7598	-0.0592	0.0182	-0.0073	-0.0462	0.0165	0.9585
46.607	13.5237	47.037	-9.9018	-16.1373	16.473	56.165	18.5211	741.8587	-65.5693	279.2306	58.0956	758.7331	-0.0592	0.0182	-0.0073	-0.0462	0.0165	0.9585
46.6205	15.2781	73.3432	-12.3614	-25.0058	20.0417	87.8253	18.9156	731.7206	-65.3005	274.9377	57.481	746.9752	-0.0592	0.0182	-0.0073	-0.0462	0.0165	0.9585
46.634	14.8322	103.6262	-13.858	-35.1512	21.7086	124.3801	19.1628	719.981	-64.6119	270.1067	56.5189	733.8383	-0.0592	0.0182	-0.0073	-0.0462	0.0165	0.9585
46.6475	11.7068	134.7902	-13.4702	-45.4874	20.2083	162.1385	19.2826	705.7826	-63.4083	264.4273	55.119	718.4344	-0.0592	0.0182	-0.0073	-0.0462	0.0165	0.9585
